# xmcd
#
# Track frame offsets:
#	150
#	16042
#	33120
#	48282
#	61487
#	82287
#	99010
#	110277
#	126522
#	145615
#	157540
#	171245
#	185235
#	208322
#
# Disc length: 2906 seconds
#
# Revision: 0
# Processed by: cddbd v1.5.2PL0 Copyright (c) Steve Scherf et al.
# Submitted via: dBpowerAMP V4.0
#
DISCID=b50b580e
DTITLE=Country Vol. 2 - Special Hits
DYEAR=1900
DGENRE=
TTITLE0=Have You Ever Seen The Rain
TTITLE1=Lyin`Eyes
TTITLE2=Stoney
TTITLE3=The Mansion You Stole
TTITLE4=500 Miles
TTITLE5=Jambalaya
TTITLE6=Oh Lonesome Me
TTITLE7=Sundown
TTITLE8=Woh`s Bed Have Your Boot Been Under
TTITLE9=Jonny B Goode
TTITLE10=Rose Garden
TTITLE11=Honky Tonk Woman
TTITLE12=Those Were The Day
TTITLE13=Bye Bye Love
EXTD=Mastered in England Produced By Jim and A, A. Rabl
EXTT0=
EXTT1=
EXTT2=
EXTT3=
EXTT4=
EXTT5=
EXTT6=
EXTT7=
EXTT8=
EXTT9=
EXTT10=
EXTT11=
EXTT12=
EXTT13=
PLAYORDER=
